<svg aria-hidden="true" style="position:absolute;width:0;height:0" xmlns="http://www.w3.org/2000/svg" overflow="hidden"><defs><symbol id="icon-close-black-18dp" viewBox="0 0 32 32"><path d="M26.67 7.3L24.7 5.33l-7.81 7.81-7.8-7.8L7.1 7.3l7.8 7.81-7.8 7.8 1.97 1.98 7.8-7.8 7.82 7.8 1.97-1.97-7.81-7.8 7.8-7.82z"/></symbol><symbol id="icon-icon_check" viewBox="0 0 34 32"><path fill="var(--color1, #fff)" stroke="var(--color1, #fff)" stroke-width=".43" d="M8.44 16.54l-.14-.14-.15.14-2.06 1.95.16.15 7.6 7.25.16-.14 16.17-15.42-.17-.16L28 8.24l-.15.14L13.86 21.7l-5.42-5.16z"/></symbol><symbol id="icon-person-black-18dp" viewBox="0 0 32 32"><path d="M16 16a5.33 5.33 0 100-10.67A5.33 5.33 0 1016 16zm0 2.67c-3.56 0-10.67 1.78-10.67 5.33v1.33c0 .74.6 1.34 1.34 1.34h18.66c.74 0 1.34-.6 1.34-1.34V24c0-3.55-7.11-5.33-10.67-5.33z"/></symbol><symbol id="icon-phone-black-18dp" viewBox="0 0 32 32"><path d="M24.88 19.77l-3.27-.37a2.52 2.52 0 00-2.1.73l-2.37 2.37a19.5 19.5 0 01-8.43-8.37l-.05-.1 2.38-2.39a2.55 2.55 0 00.73-2.12v.01L11.4 6.3a2.58 2.58 0 00-2.56-2.28H6.61a2.55 2.55 0 00-2.57 2.67 21.86 21.86 0 0020.44 20.44 2.56 2.56 0 002.67-2.57v-2.23-.01c0-1.31-.99-2.39-2.26-2.53z"/></symbol></defs></svg>